<svg width="512" height="512" viewBox="0 0 512 512" fill="none" xmlns="http://www.w3.org/2000/svg">
  <rect width="512" height="512" rx="64" fill="#1f2937"/>
  <path d="M256 128C185.307 128 128 185.307 128 256C128 326.693 185.307 384 256 384C326.693 384 384 326.693 384 256C384 185.307 326.693 128 256 128ZM256 352C203.019 352 160 308.981 160 256C160 203.019 203.019 160 256 160C308.981 160 352 203.019 352 256C352 308.981 308.981 352 256 352Z" fill="white"/>
  <path d="M256 192C228.719 192 208 212.719 208 240C208 267.281 228.719 288 256 288C283.281 288 304 267.281 304 240C304 212.719 283.281 192 256 192ZM256 256C245.019 256 240 250.981 240 240C240 229.019 245.019 224 256 224C266.981 224 272 229.019 272 240C272 250.981 266.981 256 256 256Z" fill="white"/>
  <path d="M256 320C238.327 320 224 334.327 224 352V368H288V352C288 334.327 273.673 320 256 320Z" fill="white"/>
</svg> 